<svg width="1728" height="1062" viewBox="0 0 1728 1062" fill="none" xmlns="http://www.w3.org/2000/svg">
<g clip-path="url(#clip0_7099_122055)">
<mask id="mask0_7099_122055" style="mask-type:luminance" maskUnits="userSpaceOnUse" x="0" y="0" width="1728" height="1062">
<path d="M1728 0H0V1062H1728V0Z" fill="white"/>
</mask>
<g mask="url(#mask0_7099_122055)">
<path d="M1034 917C1092.54 917 1140 869.542 1140 811C1140 752.458 1092.54 705 1034 705C975.458 705 928 752.458 928 811C928 869.542 975.458 917 1034 917Z" fill="#0D6EFD"/>
<path d="M904 680C918.359 680 930 668.359 930 654C930 639.641 918.359 628 904 628C889.641 628 878 639.641 878 654C878 668.359 889.641 680 904 680Z" fill="#CDE1F2"/>
<path d="M909 237C923.359 237 935 225.359 935 211C935 196.641 923.359 185 909 185C894.641 185 883 196.641 883 211C883 225.359 894.641 237 909 237Z" fill="#CDE1F2"/>
<path d="M1279 917C1293.36 917 1305 905.359 1305 891C1305 876.641 1293.36 865 1279 865C1264.64 865 1253 876.641 1253 891C1253 905.359 1264.64 917 1279 917Z" fill="#CDE1F2"/>
<path d="M1698 722C2106.14 722 2437 398.75 2437 0C2437 -398.75 2106.14 -722 1698 -722C1289.86 -722 959 -398.75 959 0C959 398.75 1289.86 722 1698 722Z" fill="#0D6EFD"/>
</g>
</g>
<defs>
<clipPath id="clip0_7099_122055">
<rect width="1728" height="1062" fill="white"/>
</clipPath>
</defs>
</svg>
