<svg width="428" height="437" viewBox="0 0 428 437" fill="none" xmlns="http://www.w3.org/2000/svg">
<g clip-path="url(#clip0_6071_103772)">
<mask id="mask0_6071_103772" style="mask-type:luminance" maskUnits="userSpaceOnUse" x="0" y="0" width="428" height="437">
<path d="M428 0H0V437H428V0Z" fill="white"/>
</mask>
<g mask="url(#mask0_6071_103772)">
<path d="M123 434C139.569 434 153 420.569 153 404C153 387.431 139.569 374 123 374C106.431 374 93 387.431 93 404C93 420.569 106.431 434 123 434Z" fill="#0D6EFD"/>
<path d="M103 131C108.523 131 113 126.523 113 121C113 115.477 108.523 111 103 111C97.4772 111 93 115.477 93 121C93 126.523 97.4772 131 103 131Z" fill="#CDE1F2"/>
<path d="M83 239C88.5228 239 93 234.523 93 229C93 223.477 88.5228 219 83 219C77.4772 219 73 223.477 73 229C73 234.523 77.4772 239 83 239Z" fill="#CDE1F2"/>
<path d="M224 435C229.523 435 234 430.523 234 425C234 419.477 229.523 415 224 415C218.477 415 214 419.477 214 425C214 430.523 218.477 435 224 435Z" fill="#CDE1F2"/>
<path d="M428 305C596.447 305 733 168.447 733 0C733 -168.447 596.447 -305 428 -305C259.553 -305 123 -168.447 123 0C123 168.447 259.553 305 428 305Z" fill="#0D6EFD"/>
</g>
</g>
<defs>
<clipPath id="clip0_6071_103772">
<rect width="428" height="437" fill="white"/>
</clipPath>
</defs>
</svg>
